<?xml version="1.0" encoding="UTF-8"?>
<svg version="1.1" xmlns="http://www.w3.org/2000/svg" width="256" height="256">
<path d="M0 0 C4.29161047 -0.05783842 8.58312145 -0.0935412 12.875 -0.125 C14.09832031 -0.14175781 15.32164062 -0.15851562 16.58203125 -0.17578125 C17.74863281 -0.18222656 18.91523438 -0.18867188 20.1171875 -0.1953125 C21.19597168 -0.20578613 22.27475586 -0.21625977 23.38623047 -0.22705078 C26 0 26 0 28 2 C30.2091965 3.262398 32.26715038 4.08006813 34.7109375 4.8125 C38.38725892 6.13981795 41.57718253 7.94072936 44.875 10 C45.46796875 10.35578125 46.0609375 10.7115625 46.671875 11.078125 C48.15294043 11.99269997 49.58212216 12.99023537 51 14 C51 14.66 51 15.32 51 16 C51.88341064 16.10779785 52.76682129 16.2155957 53.67700195 16.32666016 C57.07216592 17.014623 59.21433527 18.00332152 62.16796875 19.7734375 C63.13516846 20.34586182 64.10236816 20.91828613 65.09887695 21.50805664 C66.11812256 22.12414795 67.13736816 22.74023926 68.1875 23.375 C70.33026581 24.65312088 72.47350156 25.93045423 74.6171875 27.20703125 C75.68549805 27.84592285 76.75380859 28.48481445 77.85449219 29.14306641 C80.78018625 30.87023414 83.72706199 32.54652618 86.6953125 34.19921875 C87.56260986 34.68535645 88.42990723 35.17149414 89.32348633 35.67236328 C90.94324986 36.57701591 92.56788869 37.47301212 94.19799805 38.35888672 C98.45243617 40.75824418 100.75015189 42.52878288 103 47 C104.28449415 48.42164753 105.59820401 49.8173565 106.9375 51.1875 C114.22998748 59.21727941 116.14490691 68.30946685 116.16113281 78.90454102 C116.16609772 79.68578842 116.17106262 80.46703583 116.17617798 81.2719574 C116.19074628 83.84928278 116.19759453 86.4265465 116.203125 89.00390625 C116.20736607 90.33156667 116.20736607 90.33156667 116.21169281 91.68604851 C116.22666808 96.37476778 116.23590659 101.06345645 116.24023438 105.75219727 C116.24570049 110.56794537 116.26969382 115.3834081 116.29820633 120.19906712 C116.3169467 123.92513308 116.32204445 127.65113205 116.32357025 131.37724113 C116.32657427 133.15084319 116.33452556 134.9244447 116.34775543 136.69799995 C116.47907301 155.66371418 113.03446833 168.93105027 100 183.1875 C97.24091183 185.68792365 94.5347844 187.63887426 90.875 188.5 C88.918368 188.85226491 88.918368 188.85226491 87.65209961 190.36474609 C84.49040405 193.49420329 80.39946504 195.42426128 76.5625 197.625 C75.70333984 198.12773437 74.84417969 198.63046875 73.95898438 199.1484375 C73.12818359 199.62796875 72.29738281 200.1075 71.44140625 200.6015625 C70.68545166 201.03807129 69.92949707 201.47458008 69.15063477 201.92431641 C67 203 67 203 64.90991211 203.46240234 C62.53120856 204.13195433 61.68464741 205.22141516 60 207 C56.94108742 209.01956953 53.74154906 210.80161712 50.5625 212.625 C49.70333984 213.12773437 48.84417969 213.63046875 47.95898438 214.1484375 C47.12818359 214.62796875 46.29738281 215.1075 45.44140625 215.6015625 C44.68545166 216.03807129 43.92949707 216.47458008 43.15063477 216.92431641 C41.09033105 217.9548191 39.22330409 218.45430446 37 219 C36.54625 219.495 36.0925 219.99 35.625 220.5 C33.30745317 222.63927399 31.06440101 222.659511 28 223 C28 223.66 28 224.32 28 225 C16.09879707 227.23036037 5.30534129 226.0196769 -6 222 C-7.28197266 221.64421875 -7.28197266 221.64421875 -8.58984375 221.28125 C-13.20096806 219.54877718 -17.19359977 217.08086426 -21.375 214.5 C-22.62216797 213.75169922 -22.62216797 213.75169922 -23.89453125 212.98828125 C-24.67957031 212.50746094 -25.46460937 212.02664062 -26.2734375 211.53125 C-26.98935059 211.09361328 -27.70526367 210.65597656 -28.44287109 210.20507812 C-28.95672363 209.80740234 -29.47057617 209.40972656 -30 209 C-30 208.34 -30 207.68 -30 207 C-31.299375 206.85401367 -31.299375 206.85401367 -32.625 206.70507812 C-36.33223446 205.93059222 -38.76183437 204.66619272 -42 202.71875 C-43.69286133 201.70905151 -43.69286133 201.70905151 -45.41992188 200.67895508 C-46.61364555 199.95323561 -47.80699899 199.22690683 -49 198.5 C-50.21913057 197.76476942 -51.43853245 197.02998854 -52.65820312 196.2956543 C-55.04208295 194.85692216 -57.42150941 193.41124105 -59.796875 191.95849609 C-61.72096817 190.78204217 -63.64733119 189.60927188 -65.578125 188.44384766 C-67.56061451 187.24653296 -69.53287293 186.03483509 -71.5 184.8125 C-73.03140625 183.86310547 -73.03140625 183.86310547 -74.59375 182.89453125 C-77.24370146 180.80812466 -78.42888695 178.95953853 -80 176 C-80.99392415 174.55829232 -81.99386766 173.12071456 -83 171.6875 C-88.4194157 163.60544333 -90.14184938 155.6637789 -90.17700195 146.01953125 C-90.18357315 145.23013657 -90.19014435 144.44074188 -90.19691467 143.62742615 C-90.21657475 141.02244963 -90.22829735 138.41753072 -90.23828125 135.8125 C-90.24235678 134.91760864 -90.2464323 134.02271729 -90.25063133 133.10070801 C-90.27146648 128.35897048 -90.28577618 123.61726163 -90.29516602 118.87548828 C-90.30619242 114.00818929 -90.3405559 109.14135223 -90.38033772 104.2742157 C-90.40664884 100.5060753 -90.41487089 96.73804227 -90.41844749 92.96981812 C-90.42328036 91.17748921 -90.43479855 89.38516402 -90.45348549 87.59292603 C-90.59151469 73.47093266 -89.80759369 61.07472466 -80 50 C-79.12423652 48.91728377 -78.24918583 47.83399043 -77.375 46.75 C-73.33079412 42.0672353 -69.41237333 38.83006798 -64 35.8125 C-63.38382813 35.45736328 -62.76765625 35.10222656 -62.1328125 34.73632812 C-59.70680713 33.36454183 -57.46938391 32.11490127 -54.75 31.44921875 C-52.91611483 31.1439821 -52.91611483 31.1439821 -51.76098633 29.69140625 C-49.43137087 27.45383854 -46.88616719 26.07738523 -44.07421875 24.48828125 C-43.49017776 24.15636276 -42.90613678 23.82444427 -42.30439758 23.48246765 C-40.43466045 22.42121262 -38.5612113 21.36671945 -36.6875 20.3125 C-34.86235237 19.27924623 -33.0379795 18.24463413 -31.21365356 17.20993042 C-29.99392218 16.51949298 -28.77311126 15.83095925 -27.55123901 15.14431763 C-24.40326888 13.37381577 -21.27458841 11.5782949 -18.17041016 9.73193359 C-17.54729446 9.36496872 -16.92417877 8.99800385 -16.28218079 8.61991882 C-14.56173057 7.60474777 -12.84671896 6.58037588 -11.13208008 5.55541992 C-7.9905394 3.99530178 -5.43800323 3.50982501 -2 3 C-1.34 2.34 -0.68 1.68 0 1 C0 0.67 0 0.34 0 0 Z M-5 81 C-6.6180764 81.88602514 -8.26739937 82.71643399 -9.9375 83.5 C-13.27496152 85.07057013 -16.06798018 86.77267164 -19 89 C-21.1875 89.625 -21.1875 89.625 -23 90 C-25.5327949 92.5327949 -24.23450146 99.41638301 -24.25 102.8125 C-24.270625 103.89982422 -24.29125 104.98714844 -24.3125 106.10742188 C-24.36180994 116.48100119 -23.21544668 127.90345917 -16 136 C-15.34 136 -14.68 136 -14 136 C-13.896875 136.61875 -13.79375 137.2375 -13.6875 137.875 C-13.12474627 140.36526484 -13.12474627 140.36526484 -10 142 C-8.948125 142.4640625 -8.948125 142.4640625 -7.875 142.9375 C-6 144 -6 144 -5 147 C-3.17225974 147.56828008 -3.17225974 147.56828008 -1 148 C1.45698049 149.29228119 3.86353182 150.65436966 6.26953125 152.0390625 C10.39588082 153.49125419 13.81280477 153.00929107 17.78930664 151.17431641 C19.60538434 150.16806746 21.36727627 149.10485492 23.125 148 C27.05741917 145.56036468 30.41410293 143.84802046 35 143 C36.73538192 140.60775041 36.73538192 140.60775041 38 138 C38.66 137.34 39.32 136.68 40 136 C40.66 136.33 41.32 136.66 42 137 C50.49357072 124.32836212 52.88287559 111.12423243 51.6875 96.0625 C51.30363647 92.70384226 51.30363647 92.70384226 48 91 C47.11699219 90.72027344 46.23398438 90.44054687 45.32421875 90.15234375 C41.19674295 88.72155014 37.59720256 86.72169897 33.8125 84.5625 C33.10158203 84.16740234 32.39066406 83.77230469 31.65820312 83.36523438 C26.37243629 80.37676225 26.37243629 80.37676225 24.42358398 78.40527344 C21.41548214 75.43586267 16.75623044 75.84178531 12.75 75.8125 C5.95594851 75.88594921 -0.10351852 76.02988722 -5 81 Z " fill="#6766B5" transform="translate(115,15)"/>
<path d="M0 0 C4.29161047 -0.05783842 8.58312145 -0.0935412 12.875 -0.125 C14.09832031 -0.14175781 15.32164062 -0.15851562 16.58203125 -0.17578125 C17.74863281 -0.18222656 18.91523438 -0.18867188 20.1171875 -0.1953125 C21.19597168 -0.20578613 22.27475586 -0.21625977 23.38623047 -0.22705078 C26 0 26 0 28 2 C30.2091965 3.262398 32.26715038 4.08006813 34.7109375 4.8125 C38.38725892 6.13981795 41.57718253 7.94072936 44.875 10 C45.76445312 10.53367187 45.76445312 10.53367187 46.671875 11.078125 C48.15294043 11.99269997 49.58212216 12.99023537 51 14 C51 14.66 51 15.32 51 16 C51.88341064 16.10779785 52.76682129 16.2155957 53.67700195 16.32666016 C57.07216592 17.014623 59.21433527 18.00332152 62.16796875 19.7734375 C63.13516846 20.34586182 64.10236816 20.91828613 65.09887695 21.50805664 C66.11812256 22.12414795 67.13736816 22.74023926 68.1875 23.375 C70.33026581 24.65312088 72.47350156 25.93045423 74.6171875 27.20703125 C75.68549805 27.84592285 76.75380859 28.48481445 77.85449219 29.14306641 C80.78018625 30.87023414 83.72706199 32.54652618 86.6953125 34.19921875 C87.56260986 34.68535645 88.42990723 35.17149414 89.32348633 35.67236328 C90.94324986 36.57701591 92.56788869 37.47301212 94.19799805 38.35888672 C98.45243617 40.75824418 100.75015189 42.52878288 103 47 C104.28449415 48.42164753 105.59820401 49.8173565 106.9375 51.1875 C114.08693828 59.05976751 116.1683293 68.03619665 116.11352539 78.45239258 C116.11367142 79.1846405 116.11381744 79.91688843 116.1139679 80.67132568 C116.11327413 83.07909155 116.10550692 85.48677898 116.09765625 87.89453125 C116.09579017 89.56890318 116.09436716 91.24327565 116.09336853 92.91764832 C116.08955835 97.31527221 116.0797409 101.71286284 116.06866455 106.11047363 C116.05841816 110.60163931 116.053864 115.09281037 116.04882812 119.58398438 C116.03811726 128.38933814 116.02105888 137.19466493 116 146 C113.92372804 143.30390859 112.43524223 140.91778393 111.1875 137.75 C109.10565194 132.91089515 106.31144155 129.0663816 103 125 C102.56429687 124.43023437 102.12859375 123.86046875 101.6796875 123.2734375 C99.13562947 120.02536341 96.74011051 117.7716313 93 116 C92.01 116 91.02 116 90 116 C88.66666667 114.66666667 87.33333333 113.33333333 86 112 C82.89870042 109.87572081 79.91099208 108.18219842 76.1875 107.4375 C74 107 74 107 72 104 C70.67686751 103.6282349 69.3406966 103.3023599 68 103 C66.06095034 102.02235066 64.14509158 100.99784886 62.25 99.9375 C61.26515625 99.38964844 60.2803125 98.84179688 59.265625 98.27734375 C58.51796875 97.85582031 57.7703125 97.43429688 57 97 C57 96.34 57 95.68 57 95 C55.35 95 53.7 95 52 95 C52.99 96.485 52.99 96.485 54 98 C54.30078125 100.8125 54.30078125 100.8125 54.3125 104 C54.32925781 105.051875 54.34601563 106.10375 54.36328125 107.1875 C54 110 54 110 52.48046875 111.875 C51.99191406 112.24625 51.50335938 112.6175 51 113 C51.01160156 112.14277344 51.02320313 111.28554687 51.03515625 110.40234375 C51.0818041 104.49139448 51.08249916 98.81843296 50 93 C48.85144531 92.59910156 47.70289063 92.19820313 46.51953125 91.78515625 C41.98124567 90.0824243 37.87497579 87.86141186 33.6875 85.4375 C32.98560547 85.03853516 32.28371094 84.63957031 31.56054688 84.22851562 C28.63871069 82.56008867 25.80192381 80.86794921 23 79 C23 78.67 23 78.34 23 78 C14.4311407 76.07354782 6.42887429 76.78914773 -2 79 C-2 79.66 -2 80.32 -2 81 C-2.556875 81.23074219 -3.11375 81.46148437 -3.6875 81.69921875 C-8.53461927 83.77070722 -12.81296352 86.03679607 -17.078125 89.14453125 C-19.67335367 90.2997245 -21.29041009 89.63014365 -24 89 C-24.06988359 81.61051041 -24.12300413 74.2210935 -24.15543652 66.83133888 C-24.171012 63.39899547 -24.192099 59.96688016 -24.22631836 56.53466797 C-24.26551595 52.57782842 -24.2797763 48.62107732 -24.29296875 44.6640625 C-24.30845261 43.44699615 -24.32393646 42.22992981 -24.33988953 40.97598267 C-24.34166088 31.90434951 -23.58480297 23.22815613 -17.5 16.0625 C-16.9121875 15.35222656 -16.324375 14.64195313 -15.71875 13.91015625 C-12.48318386 10.3142657 -12.48318386 10.3142657 -11 9 C-10.34 9 -9.68 9 -9 9 C-9.33 7.68 -9.66 6.36 -10 5 C-6.97265625 4.31640625 -6.97265625 4.31640625 -3.9453125 3.6328125 C-1.79280036 3.09525572 -1.79280036 3.09525572 0 1 C0 0.67 0 0.34 0 0 Z " fill="#3C8DB9" transform="translate(115,15)"/>
<path d="M0 0 C4.75 -0.125 4.75 -0.125 7 1 C7 1.66 7 2.32 7 3 C8.65 3.33 10.3 3.66 12 4 C12 4.66 12 5.32 12 6 C13.3921875 6.4640625 13.3921875 6.4640625 14.8125 6.9375 C21 9 21 9 22.4375 10.5 C23.87131217 12.13174346 23.87131217 12.13174346 25.8046875 12.421875 C28.45543234 13.11993592 30.36430808 14.29847268 32.6875 15.75 C35.96517948 17.78408932 39.243429 19.64116974 42.6875 21.375 C47.52584753 24.02110511 50.67511866 27.66731784 54 32 C54.83917969 33.04994141 54.83917969 33.04994141 55.6953125 34.12109375 C57 36 57 36 57 38 C57.66 38.33 58.32 38.66 59 39 C60.03515625 41.21484375 60.03515625 41.21484375 61.0625 43.9375 C62.41423906 47.52024761 62.41423906 47.52024761 64 51 C64.09082916 63.49809248 60.82842966 72.43887791 53 82 C52.22462891 83.03833984 52.22462891 83.03833984 51.43359375 84.09765625 C48.16119354 88.44005108 44.30837615 92.22155855 38.875 93.5 C36.918368 93.85226491 36.918368 93.85226491 35.65209961 95.36474609 C32.49040405 98.49420329 28.39946504 100.42426128 24.5625 102.625 C23.70333984 103.12773437 22.84417969 103.63046875 21.95898438 104.1484375 C20.7127832 104.86773437 20.7127832 104.86773437 19.44140625 105.6015625 C18.30747437 106.25632568 18.30747437 106.25632568 17.15063477 106.92431641 C15 108 15 108 12.90991211 108.46240234 C10.53120856 109.13195433 9.68464741 110.22141516 8 112 C4.94108742 114.01956953 1.74154906 115.80161712 -1.4375 117.625 C-2.29666016 118.12773437 -3.15582031 118.63046875 -4.04101562 119.1484375 C-4.87181641 119.62796875 -5.70261719 120.1075 -6.55859375 120.6015625 C-7.69252563 121.25632568 -7.69252563 121.25632568 -8.84936523 121.92431641 C-10.90966895 122.9548191 -12.77669591 123.45430446 -15 124 C-15.45375 124.495 -15.9075 124.99 -16.375 125.5 C-18.69254683 127.63927399 -20.93559899 127.659511 -24 128 C-24 128.66 -24 129.32 -24 130 C-35.90120293 132.23036037 -46.69465871 131.0196769 -58 127 C-58.85464844 126.7628125 -59.70929688 126.525625 -60.58984375 126.28125 C-65.20096806 124.54877718 -69.19359977 122.08086426 -73.375 119.5 C-74.20644531 119.00113281 -75.03789063 118.50226563 -75.89453125 117.98828125 C-76.67957031 117.50746094 -77.46460938 117.02664062 -78.2734375 116.53125 C-78.98935059 116.09361328 -79.70526367 115.65597656 -80.44287109 115.20507812 C-80.95672363 114.80740234 -81.47057617 114.40972656 -82 114 C-82 113.34 -82 112.68 -82 112 C-83.28958618 111.86053955 -83.28958618 111.86053955 -84.60522461 111.71826172 C-88.43406888 110.90816033 -90.97304349 109.53022537 -94.31640625 107.5078125 C-94.89535141 107.16120575 -95.47429657 106.814599 -96.07078552 106.45748901 C-97.90685267 105.35549273 -99.73466041 104.24057831 -101.5625 103.125 C-102.79309376 102.38324118 -104.02420939 101.64234744 -105.25585938 100.90234375 C-108.50983815 98.94461548 -111.75482501 96.97228886 -115 95 C-116.66590779 93.9987363 -118.33229736 92.99827135 -120 92 C-119.505 91.01 -119.505 91.01 -119 90 C-113.41624365 90.88832487 -113.41624365 90.88832487 -111.078125 91.515625 C-92.04763767 95.9513025 -72.4883112 80.45752054 -57.12133789 71.07910156 C-52.49933806 68.26264062 -47.78222111 65.67929146 -42.9765625 63.19140625 C-40.85283974 62.15164625 -40.85283974 62.15164625 -40 60 C-41.485 59.01 -41.485 59.01 -43 58 C-41.7625 57.649375 -40.525 57.29875 -39.25 56.9375 C-33.96549402 55.20665706 -29.49061603 52.46633862 -24.796875 49.5234375 C-22.09916704 48.05401557 -19.9834346 47.54916318 -17 47 C-15.89163577 45.11683841 -15.89163577 45.11683841 -15 43 C-13.69855198 41.95884159 -12.36161311 40.96113866 -11 40 C-4.4763043 34.90336273 -2.74566442 25.5696698 -0.61328125 17.93359375 C0 16 0 16 1 15 C1.09938863 13.23146708 1.12969223 11.45881725 1.125 9.6875 C1.12757813 8.72199219 1.13015625 7.75648437 1.1328125 6.76171875 C1.01628167 4.33856295 0.69241648 2.31355031 0 0 Z " fill="#966EBF" transform="translate(167,110)"/>
<path d="M0 0 C0.81726562 0.14308594 1.63453125 0.28617188 2.4765625 0.43359375 C6.43401938 1.0697703 10.39682662 1.57691826 14.375 2.0625 C15.11105469 2.15337891 15.84710938 2.24425781 16.60546875 2.33789062 C18.40350645 2.55972644 20.20173405 2.7800221 22 3 C22 3.33 22 3.66 22 4 C19.03 4 16.06 4 13 4 C13 4.66 13 5.32 13 6 C13.70664795 6.26570801 14.4132959 6.53141602 15.14135742 6.80517578 C20.44320317 9.02118339 25.33537632 12.01846262 30.3125 14.875 C31.43462891 15.50019531 32.55675781 16.12539062 33.71289062 16.76953125 C34.77314453 17.37925781 35.83339844 17.98898438 36.92578125 18.6171875 C37.89942627 19.17003418 38.87307129 19.72288086 39.8762207 20.29248047 C40.57706787 20.85596191 41.27791504 21.41944336 42 22 C42 23.32 42 24.64 42 26 C39.525 25.01 39.525 25.01 37 24 C37 23.34 37 22.68 37 22 C36.14027588 21.90702637 35.28055176 21.81405273 34.39477539 21.71826172 C30.56593112 20.90816033 28.02695651 19.53022537 24.68359375 17.5078125 C24.10464859 17.16120575 23.52570343 16.814599 22.92921448 16.45748901 C21.09314733 15.35549273 19.26533959 14.24057831 17.4375 13.125 C16.20690624 12.38324118 14.97579061 11.64234744 13.74414062 10.90234375 C10.49016185 8.94461548 7.24517499 6.97228886 4 5 C2.33409221 3.9987363 0.66770264 2.99827135 -1 2 C-0.67 1.34 -0.34 0.68 0 0 Z " fill="#C289F2" transform="translate(48,200)"/>
<path d="M0 0 C0.33 0 0.66 0 1 0 C2.01015491 4.16892555 2.13596231 8.18796343 2.11352539 12.45239258 C2.11367142 13.1846405 2.11381744 13.91688843 2.1139679 14.67132568 C2.11327413 17.07909155 2.10550692 19.48677898 2.09765625 21.89453125 C2.09579017 23.56890318 2.09436716 25.24327565 2.09336853 26.91764832 C2.08955835 31.31527221 2.0797409 35.71286284 2.06866455 40.11047363 C2.05841816 44.60163931 2.053864 49.09281037 2.04882812 53.58398438 C2.03811726 62.38933814 2.02105888 71.19466493 2 80 C-0.42130331 77.57869669 -0.52840504 76.19888623 -1.125 72.875 C-1.29257813 71.96492188 -1.46015625 71.05484375 -1.6328125 70.1171875 C-1.81457031 69.06917969 -1.81457031 69.06917969 -2 68 C-1.34 68.33 -0.68 68.66 0 69 C0.33 48.54 0.66 28.08 1 7 C0.34 7 -0.32 7 -1 7 C-1.04254356 5.00045254 -1.04080783 2.99958364 -1 1 C-0.67 0.67 -0.34 0.34 0 0 Z " fill="#44D4EB" transform="translate(229,81)"/>
<path d="M0 0 C0.33 0 0.66 0 1 0 C1 27.39 1 54.78 1 83 C0.67 83 0.34 83 0 83 C0 55.61 0 28.22 0 0 Z " fill="#00D3DD" transform="translate(232,86)"/>
<path d="M0 0 C0.33 0 0.66 0 1 0 C1 27.39 1 54.78 1 83 C0.67 83 0.34 83 0 83 C0 55.61 0 28.22 0 0 Z " fill="#090615" transform="translate(23,86)"/>
<path d="M0 0 C0.66 0.33 1.32 0.66 2 1 C1.89453125 2.7734375 1.89453125 2.7734375 1 5 C-1.80078125 6.8515625 -1.80078125 6.8515625 -5.3125 8.625 C-6.46363281 9.21539062 -7.61476563 9.80578125 -8.80078125 10.4140625 C-9.85652344 10.93742187 -10.91226563 11.46078125 -12 12 C-12.79792969 12.39960937 -13.59585938 12.79921875 -14.41796875 13.2109375 C-14.94003906 13.47132812 -15.46210937 13.73171875 -16 14 C-16.33 12.68 -16.66 11.36 -17 10 C-15.42065361 9.01441551 -13.83634827 8.03677459 -12.25 7.0625 C-10.92742188 6.24458984 -10.92742188 6.24458984 -9.578125 5.41015625 C-7.29629436 4.16206404 -5.49974047 3.57011625 -3 3 C-1.26973898 1.52109931 -1.26973898 1.52109931 0 0 Z " fill="#9875DD" transform="translate(65,43)"/>
<path d="M0 0 C0.66 0.33 1.32 0.66 2 1 C0.79665187 4.6100444 -0.24351928 5.10828588 -3.375 7.125 C-4.16648437 7.64320312 -4.95796875 8.16140625 -5.7734375 8.6953125 C-8 10 -8 10 -11 11 C-11.33 9.68 -11.66 8.36 -12 7 C-10.04754815 5.80285445 -8.08785003 4.61751926 -6.125 3.4375 C-5.03445312 2.77621094 -3.94390625 2.11492188 -2.8203125 1.43359375 C-1.88960937 0.96050781 -0.95890625 0.48742187 0 0 Z M-14 8 C-13.34 8.33 -12.68 8.66 -12 9 C-12.33 10.32 -12.66 11.64 -13 13 C-13.66 13 -14.32 13 -15 13 C-14.67 11.35 -14.34 9.7 -14 8 Z " fill="#906ACC" transform="translate(86,31)"/>
<path d="M0 0 C6.65786351 -1.05920556 10.92941087 1.80977213 16.62109375 5.078125 C17.40613281 5.71234375 18.19117187 6.3465625 19 7 C19 8.32 19 9.64 19 11 C17.35 10.34 15.7 9.68 14 9 C14 8.34 14 7.68 14 7 C13.175 6.938125 12.35 6.87625 11.5 6.8125 C7.04490315 5.77828109 3.64298266 3.73686007 0 1 C0 0.67 0 0.34 0 0 Z " fill="#C087F1" transform="translate(71,215)"/>
<path d="M0 0 C0.99 0.33 1.98 0.66 3 1 C1.63883102 4.09969173 0.13146273 5.99527807 -2.375 8.25 C-6.07273541 11.80878084 -7.94708808 15.31936083 -10 20 C-10.66 20 -11.32 20 -12 20 C-11.58228742 13.31659872 -6.23788121 8.4509531 -2.125 3.5625 C0.10638931 1.42653509 0.10638931 1.42653509 0 0 Z " fill="#9F79D7" transform="translate(40,58)"/>
<path d="M0 0 C3.69876091 1.37287342 6.9514476 3.06355453 10.3125 5.125 C11.19550781 5.66382813 12.07851562 6.20265625 12.98828125 6.7578125 C13.98408203 7.37269531 13.98408203 7.37269531 15 8 C11.32312584 9.22562472 9.74848715 8.99016642 6 8 C3.22543613 6.4852381 0.60349991 4.79073217 -2 3 C-1.34 2.01 -0.68 1.02 0 0 Z " fill="#C997F9" transform="translate(61,206)"/>
<path d="M0 0 C0 0.66 0 1.32 0 2 C-1.42578125 3.40234375 -1.42578125 3.40234375 -3.3125 4.9375 C-5.66350211 6.86463171 -7.88235135 8.81719293 -10 11 C-10.33 8.69 -10.66 6.38 -11 4 C-9.73760288 3.13341385 -8.46472499 2.28207941 -7.1875 1.4375 C-6.47980469 0.96183594 -5.77210937 0.48617188 -5.04296875 -0.00390625 C-3 -1 -3 -1 0 0 Z " fill="#9867DA" transform="translate(106,22)"/>
<path d="M0 0 C4.30764815 1.56641751 8.06171464 3.68336156 12 6 C12 7.32 12 8.64 12 10 C7.69235185 8.43358249 3.93828536 6.31663844 0 4 C0 2.68 0 1.36 0 0 Z M4 3 C5 5 5 5 5 5 Z " fill="#CE98F5" transform="translate(90,223)"/>
<path d="M0 0 C1.98 0.66 3.96 1.32 6 2 C4.68 2.33 3.36 2.66 2 3 C2.99 4.485 2.99 4.485 4 6 C4.30078125 8.8125 4.30078125 8.8125 4.3125 12 C4.32925781 13.051875 4.34601563 14.10375 4.36328125 15.1875 C4 18 4 18 2.48046875 19.875 C1.99191406 20.24625 1.50335938 20.6175 1 21 C1.01740234 19.7315625 1.01740234 19.7315625 1.03515625 18.4375 C1.08489687 12.18439382 0.96940246 6.17994069 0 0 Z " fill="#553A7D" transform="translate(165,107)"/>
<path d="M0 0 C0.66 0.66 1.32 1.32 2 2 C0.7820245 5.65392651 -0.14396506 5.95831699 -3.4375 7.75 C-4.24058594 8.19859375 -5.04367188 8.6471875 -5.87109375 9.109375 C-6.57363281 9.40328125 -7.27617187 9.6971875 -8 10 C-8.66 9.67 -9.32 9.34 -10 9 C-9.8125 7.125 -9.8125 7.125 -9 5 C-5 3 -5 3 -3 3 C-1.97980427 2.0206121 -0.97850195 1.02104551 0 0 Z " fill="#BB8BF3" transform="translate(164,223)"/>
<path d="M0 0 C0.66 0 1.32 0 2 0 C1.76228882 1.28414795 1.76228882 1.28414795 1.51977539 2.59423828 C1.01152258 5.92449977 0.79576702 9.12698945 0.68359375 12.4921875 C0.64169922 13.69101563 0.59980469 14.88984375 0.55664062 16.125 C0.51732422 17.3625 0.47800781 18.6 0.4375 19.875 C0.39431641 21.13570312 0.35113281 22.39640625 0.30664062 23.6953125 C0.20090898 26.79677423 0.09881429 29.89831145 0 33 C-0.33 33 -0.66 33 -1 33 C-1.02473064 28.78247482 -1.04287453 24.56498814 -1.05493164 20.34741211 C-1.05995842 18.91283432 -1.06678079 17.47826164 -1.07543945 16.04370117 C-1.08757752 13.98094418 -1.09324486 11.91825496 -1.09765625 9.85546875 C-1.10289307 8.61434326 -1.10812988 7.37321777 -1.11352539 6.09448242 C-1 3 -1 3 0 0 Z " fill="#9571CF" transform="translate(26,83)"/>
<path d="M0 0 C0.66 0.33 1.32 0.66 2 1 C1.34 3.31 0.68 5.62 0 8 C-0.66 8 -1.32 8 -2 8 C-1.125 2.25 -1.125 2.25 0 0 Z M-3 8 C-2.34 8.66 -1.68 9.32 -1 10 C-1.66 10 -2.32 10 -3 10 C-3 9.34 -3 8.68 -3 8 Z M-4 10 C-3.34 10.66 -2.68 11.32 -2 12 C-2.66 12 -3.32 12 -4 12 C-4 11.34 -4 10.68 -4 10 Z M-5 12 C-4.34 12.66 -3.68 13.32 -3 14 C-4.65 15.98 -6.3 17.96 -8 20 C-8.66 19.67 -9.32 19.34 -10 19 C-8.35 16.69 -6.7 14.38 -5 12 Z " fill="#75549F" transform="translate(165,134)"/>
<path d="M0 0 C4.97116744 3.8121593 8.39531377 7.24798457 11 13 C10.67 13.99 10.34 14.98 10 16 C7.87014533 13.20058024 5.83981556 10.35510301 3.875 7.4375 C3.35679687 6.67308594 2.83859375 5.90867187 2.3046875 5.12109375 C1 3 1 3 0 0 Z " fill="#46CFF0" transform="translate(217,62)"/>
<path d="M0 0 C3.77545388 1.09068668 6.47043472 1.9083091 9 5 C8.67 5.99 8.34 6.98 8 8 C4.7 6.35 1.4 4.7 -2 3 C-1.34 2.67 -0.68 2.34 0 2 C0 1.34 0 0.68 0 0 Z " fill="#37B3D5" transform="translate(199,49)"/>
<path d="M0 0 C4.8274799 1.41292095 8.7162359 3.42974154 13 6 C9.42355152 7.2380014 6.66305234 6.74926071 3 6 C2.67 5.01 2.34 4.02 2 3 C1.34 2.01 0.68 1.02 0 0 Z " fill="#2B81B8" transform="translate(173,34)"/>
<path d="M0 0 C0.66 0.33 1.32 0.66 2 1 C0.85331791 4.44004627 0.12056696 5.26635169 -3 7 C-5.75 6.6875 -5.75 6.6875 -8 6 C-5.54080489 3.3651481 -3.42227589 1.25483449 0 0 Z " fill="#A76DD7" transform="translate(86,31)"/>
<path d="M0 0 C0.66 0.33 1.32 0.66 2 1 C1.65660347 3.57547398 1.39993284 4.68894113 -0.6875 6.3125 C-3.72203131 7.21465796 -5.94880471 6.69345348 -9 6 C-7 5 -5 4 -3 3 C-1.9805881 2.01979625 -0.97753644 1.02196992 0 0 Z " fill="#9C83E6" transform="translate(65,43)"/>
<path d="M0 0 C3.3529984 1.17808052 5.7552529 2.19406612 8 5 C8.33 5.99 8.66 6.98 9 8 C5.12793601 7.42636089 2.81534937 5.65894107 0 3 C0 2.01 0 1.02 0 0 Z " fill="#36BFE6" transform="translate(208,54)"/>
<path d="M0 0 C3.91211733 1.15585285 6.8745041 2.35534962 10 5 C7.625 6.0625 7.625 6.0625 5 7 C3 6 3 6 2 3 C1.01 3.495 1.01 3.495 0 4 C0 2.68 0 1.36 0 0 Z " fill="#143179" transform="translate(114,163)"/>
<path d="M0 0 C1.98 0.66 3.96 1.32 6 2 C3.47982574 4.52017426 2.48500151 4.29730377 -1 4.3125 C-1.886875 4.32925781 -2.77375 4.34601563 -3.6875 4.36328125 C-4.8321875 4.18345703 -4.8321875 4.18345703 -6 4 C-6.66 3.01 -7.32 2.02 -8 1 C-5.36 1 -2.72 1 0 1 C0 0.67 0 0.34 0 0 Z " fill="#CA79F9" transform="translate(137,237)"/>
<path d="M0 0 C0.33 0 0.66 0 1 0 C1 8.25 1 16.5 1 25 C0.67 25 0.34 25 0 25 C0 16.75 0 8.5 0 0 Z " fill="#0204E6" transform="translate(92,106)"/>
<path d="M0 0 C0.99 0.33 1.98 0.66 3 1 C1.4169423 5.2742558 -1.50568404 7.26531794 -5 10 C-4.42513981 6.11969373 -2.47533166 3.95442811 0 1 C0 0.67 0 0.34 0 0 Z " fill="#A582DE" transform="translate(40,58)"/>
<path d="M0 0 C0.66 0.33 1.32 0.66 2 1 C2 1.99 2 2.98 2 4 C0.02 4.99 -1.96 5.98 -4 7 C-4.33 5.68 -4.66 4.36 -5 3 C-2.625 1.4375 -2.625 1.4375 0 0 Z " fill="#9C5CE3" transform="translate(93,27)"/>
<path d="M0 0 C5.78461538 4.30769231 5.78461538 4.30769231 6.875 7.8125 C6.936875 8.8953125 6.936875 8.8953125 7 10 C4.55040611 9.02016244 3.24347357 8.38443195 1.8125 6.125 C1.03663547 4.09581586 0.45490269 2.1228792 0 0 Z " fill="#304887" transform="translate(34,187)"/>
<path d="M0 0 C0.66 0.66 1.32 1.32 2 2 C0.33333333 3.66666667 -1.33333333 5.33333333 -3 7 C-3.66 6.67 -4.32 6.34 -5 6 C-3.86695008 2.60085025 -2.87481525 1.94745549 0 0 Z " fill="#BF8FFA" transform="translate(152,230)"/>
<path d="M0 0 C0.66 0.33 1.32 0.66 2 1 C1 4 1 4 -1.0625 5.1875 C-1.701875 5.455625 -2.34125 5.72375 -3 6 C-3 5.34 -3 4.68 -3 4 C-3.66 3.67 -4.32 3.34 -5 3 C-2.625 1.4375 -2.625 1.4375 0 0 Z " fill="#7E5FDA" transform="translate(46,54)"/>
<path d="M0 0 C2.91517292 1.07401108 4.77810176 1.77810176 7 4 C5.02 4.33 3.04 4.66 1 5 C0.67 3.35 0.34 1.7 0 0 Z " fill="#CEA5F8" transform="translate(106,232)"/>
<path d="M0 0 C2.475 0.99 2.475 0.99 5 2 C4.01 2.99 3.02 3.98 2 5 C0.68 4.01 -0.64 3.02 -2 2 C-1.34 1.34 -0.68 0.68 0 0 Z " fill="#36B1E0" transform="translate(192,45)"/>
<path d="M0 0 C1.58294782 -0.05437607 3.16644256 -0.09296271 4.75 -0.125 C5.63171875 -0.14820313 6.5134375 -0.17140625 7.421875 -0.1953125 C10 0 10 0 14 2 C7.07 1.505 7.07 1.505 0 1 C0 0.67 0 0.34 0 0 Z " fill="#050E68" transform="translate(123,13)"/>
<path d="M0 0 C4.29 0.33 8.58 0.66 13 1 C13 1.33 13 1.66 13 2 C11.58376784 2.05447047 10.16691809 2.09300508 8.75 2.125 C7.96109375 2.14820313 7.1721875 2.17140625 6.359375 2.1953125 C4 2 4 2 0 0 Z " fill="#B970E3" transform="translate(119,241)"/>
<path d="M0 0 C0.66 0.33 1.32 0.66 2 1 C-1.465 3.97 -1.465 3.97 -5 7 C-3.38262276 3.76524552 -2.52370777 2.29427979 0 0 Z " fill="#8120E1" transform="translate(38,59)"/>
<path d="M0 0 C3.63 0 7.26 0 11 0 C11 0.33 11 0.66 11 1 C7.37 1 3.74 1 0 1 C0 0.67 0 0.34 0 0 Z " fill="#37487E" transform="translate(122,92)"/>
<path d="M0 0 C0.33 0 0.66 0 1 0 C1 2.31 1 4.62 1 7 C0.67 7 0.34 7 0 7 C0 4.69 0 2.38 0 0 Z " fill="#150C45" transform="translate(164,124)"/>
<path d="M0 0 C0.33 0 0.66 0 1 0 C1 2.31 1 4.62 1 7 C0.67 7 0.34 7 0 7 C0 4.69 0 2.38 0 0 Z " fill="#48246D" transform="translate(165,116)"/>
<path d="M0 0 C0.33 0 0.66 0 1 0 C1 2.31 1 4.62 1 7 C0.67 7 0.34 7 0 7 C0 4.69 0 2.38 0 0 Z " fill="#0C0C45" transform="translate(164,108)"/>
<path d="M0 0 C1.98 0.99 1.98 0.99 4 2 C3.67 2.66 3.34 3.32 3 4 C2.01 2.68 1.02 1.36 0 0 Z " fill="#0C9BDA" transform="translate(217,60)"/>
<path d="M0 0 C0.33 0 0.66 0 1 0 C1 1.98 1 3.96 1 6 C0.67 6 0.34 6 0 6 C0 4.02 0 2.04 0 0 Z " fill="#180E78" transform="translate(231,169)"/>
<path d="M0 0 C0.33 0 0.66 0 1 0 C1 1.98 1 3.96 1 6 C0.67 6 0.34 6 0 6 C0 4.02 0 2.04 0 0 Z " fill="#0E0EA6" transform="translate(93,131)"/>
<path d="M0 0 C1.65 0 3.3 0 5 0 C5 0.33 5 0.66 5 1 C3.35 1 1.7 1 0 1 C0 0.67 0 0.34 0 0 Z " fill="#A16ACC" transform="translate(132,241)"/>
<path d="M0 0 C0.33 0 0.66 0 1 0 C1 1.65 1 3.3 1 5 C0.67 5 0.34 5 0 5 C0 3.35 0 1.7 0 0 Z " fill="#222E90" transform="translate(24,170)"/>
<path d="M0 0 C1.65 0 3.3 0 5 0 C5 0.33 5 0.66 5 1 C3.35 1 1.7 1 0 1 C0 0.67 0 0.34 0 0 Z " fill="#000C7F" transform="translate(133,93)"/>
<path d="M0 0 C1.65 0 3.3 0 5 0 C5 0.33 5 0.66 5 1 C3.35 1 1.7 1 0 1 C0 0.67 0 0.34 0 0 Z " fill="#0A3684" transform="translate(117,93)"/>
<path d="M0 0 C0.33 0 0.66 0 1 0 C1 1.65 1 3.3 1 5 C0.67 5 0.34 5 0 5 C0 3.35 0 1.7 0 0 Z " fill="#00CCFF" transform="translate(231,81)"/>
<path d="M0 0 C0.33 0 0.66 0 1 0 C1 1.65 1 3.3 1 5 C0.67 5 0.34 5 0 5 C0 3.35 0 1.7 0 0 Z " fill="#7F19CC" transform="translate(24,81)"/>
<path d="M0 0 C0.66 0.33 1.32 0.66 2 1 C1.01 1 0.02 1 -1 1 C-0.67 0.67 -0.34 0.34 0 0 Z " fill="#BA3ACA" transform="translate(148,156)"/>
<path d="M0 0 C1 4 1 4 1 4 Z " fill="#000010" transform="translate(94,137)"/>
<path d="M0 0 C1 4 1 4 1 4 Z " fill="#4F004F" transform="translate(162,135)"/>
<path d="M0 0 C1 4 1 4 1 4 Z " fill="#15157A" transform="translate(163,131)"/>
<path d="M0 0 C4 1 4 1 4 1 Z " fill="#001020" transform="translate(113,94)"/>
<path d="M0 0 C4 1 4 1 4 1 Z " fill="#151545" transform="translate(119,14)"/>
<path d="M0 0 C3 1 3 1 3 1 Z " fill="#FF63FF" transform="translate(115,240)"/>
<path d="" fill="#000015" transform="translate(0,0)"/>
<path d="" fill="#000015" transform="translate(0,0)"/>
<path d="" fill="#00D4D4" transform="translate(0,0)"/>
<path d="" fill="#15157F" transform="translate(0,0)"/>
<path d="" fill="#1CE2FF" transform="translate(0,0)"/>
<path d="" fill="#E28DFF" transform="translate(0,0)"/>
<path d="M0 0 C2 1 2 1 2 1 Z " fill="#D4AAD4" transform="translate(113,239)"/>
<path d="M0 0 C2 1 2 1 2 1 Z " fill="#D4AAFF" transform="translate(143,238)"/>
<path d="M0 0 C2 1 2 1 2 1 Z " fill="#FF55FF" transform="translate(111,238)"/>
<path d="M0 0 C2 1 2 1 2 1 Z " fill="#D455FF" transform="translate(145,237)"/>
<path d="M0 0 C2 1 2 1 2 1 Z " fill="#D455FF" transform="translate(109,237)"/>
<path d="M0 0 C2 1 2 1 2 1 Z " fill="#FF7FFF" transform="translate(152,233)"/>
<path d="M0 0 C2 1 2 1 2 1 Z " fill="#D4D4D4" transform="translate(83,222)"/>
<path d="M0 0 C2 1 2 1 2 1 Z " fill="#FF7FFF" transform="translate(178,218)"/>
<path d="M0 0 C2 1 2 1 2 1 Z " fill="#7F00FF" transform="translate(204,203)"/>
<path d="" fill="#2A2AAA" transform="translate(0,0)"/>
<path d="" fill="#7F00FF" transform="translate(0,0)"/>
<path d="" fill="#7F007F" transform="translate(0,0)"/>
<path d="" fill="#2A2A55" transform="translate(0,0)"/>
<path d="" fill="#00007F" transform="translate(0,0)"/>
<path d="" fill="#00007F" transform="translate(0,0)"/>
<path d="" fill="#2A2A55" transform="translate(0,0)"/>
<path d="" fill="#00007F" transform="translate(0,0)"/>
<path d="" fill="#2A2A55" transform="translate(0,0)"/>
<path d="" fill="#2AAAD4" transform="translate(0,0)"/>
<path d="" fill="#2A2AD4" transform="translate(0,0)"/>
<path d="" fill="#000000" transform="translate(0,0)"/>
<path d="" fill="#AAAAD4" transform="translate(0,0)"/>
<path d="" fill="#2A2A55" transform="translate(0,0)"/>
<path d="" fill="#2A2A55" transform="translate(0,0)"/>
<path d="" fill="#00009F" transform="translate(0,0)"/>
<path d="" fill="#9F009F" transform="translate(0,0)"/>
<path d="" fill="#2AFFFF" transform="translate(0,0)"/>
<path d="" fill="#D42AFF" transform="translate(0,0)"/>
<path d="" fill="#5555FF" transform="translate(0,0)"/>
<path d="" fill="#2AFFFF" transform="translate(0,0)"/>
<path d="" fill="#FF00FF" transform="translate(0,0)"/>
<path d="M0 0 C2 1 2 1 2 1 Z " fill="#D4AAD4" transform="translate(60,46)"/>
<path d="M0 0 C2 1 2 1 2 1 Z " fill="#007FFF" transform="translate(166,30)"/>
<path d="M0 0 C2 1 2 1 2 1 Z " fill="#2A5555" transform="translate(145,18)"/>
<path d="M0 0 C2 1 2 1 2 1 Z " fill="#2A2A55" transform="translate(109,18)"/>
<path d="M0 0 C2 1 2 1 2 1 Z " fill="#557FAA" transform="translate(143,17)"/>
<path d="M0 0 C2 1 2 1 2 1 Z " fill="#2A2A55" transform="translate(111,17)"/>
<path d="M0 0 C2 1 2 1 2 1 Z " fill="#2A2A55" transform="translate(113,16)"/>
<path d="" fill="#400040" transform="translate(0,0)"/>
<path d="" fill="#400040" transform="translate(0,0)"/>
<path d="" fill="#404080" transform="translate(0,0)"/>
<path d="" fill="#5555AA" transform="translate(0,0)"/>
<path d="" fill="#400080" transform="translate(0,0)"/>
<path d="" fill="#0000FF" transform="translate(0,0)"/>
<path d="" fill="#400040" transform="translate(0,0)"/>
<path d="" fill="#0055AA" transform="translate(0,0)"/>
<path d="" fill="#AA55AA" transform="translate(0,0)"/>
<path d="" fill="#000000" transform="translate(0,0)"/>
<path d="" fill="#555555" transform="translate(0,0)"/>
<path d="" fill="#5555AA" transform="translate(0,0)"/>
<path d="" fill="#5555AA" transform="translate(0,0)"/>
<path d="" fill="#000000" transform="translate(0,0)"/>
<path d="" fill="#000040" transform="translate(0,0)"/>
<path d="" fill="#336699" transform="translate(0,0)"/>
<path d="" fill="#336699" transform="translate(0,0)"/>
<path d="" fill="#336699" transform="translate(0,0)"/>
<path d="" fill="#5555AA" transform="translate(0,0)"/>
<path d="" fill="#5555AA" transform="translate(0,0)"/>
<path d="" fill="#404040" transform="translate(0,0)"/>
<path d="" fill="#5555AA" transform="translate(0,0)"/>
<path d="" fill="#004080" transform="translate(0,0)"/>
<path d="" fill="#000040" transform="translate(0,0)"/>
<path d="" fill="#55FFFF" transform="translate(0,0)"/>
<path d="" fill="#00FFFF" transform="translate(0,0)"/>
<path d="" fill="#AA55AA" transform="translate(0,0)"/>
<path d="" fill="#00FFFF" transform="translate(0,0)"/>
<path d="" fill="#AA55AA" transform="translate(0,0)"/>
<path d="" fill="#55FFFF" transform="translate(0,0)"/>
<path d="" fill="#AAAAFF" transform="translate(0,0)"/>
<path d="" fill="#004080" transform="translate(0,0)"/>
<path d="" fill="#55FFFF" transform="translate(0,0)"/>
<path d="" fill="#55FFFF" transform="translate(0,0)"/>
</svg>
