<?xml version="1.0" encoding="UTF-8" standalone="no"?>
<svg width="64" height="64" viewBox="0 0 64 64" fill="none" xmlns="http://www.w3.org/2000/svg">
  <!-- Gradient definitions -->
  <defs>
    <linearGradient id="grad1" x1="0%" y1="0%" x2="100%" y2="100%">
      <stop offset="0%" style="stop-color:#9333EA;stop-opacity:1" />
      <stop offset="100%" style="stop-color:#0EA5E9;stop-opacity:1" />
    </linearGradient>
    <linearGradient id="grad2" x1="0%" y1="0%" x2="100%" y2="100%">
      <stop offset="0%" style="stop-color:#0EA5E9;stop-opacity:1" />
      <stop offset="100%" style="stop-color:#EC4899;stop-opacity:1" />
    </linearGradient>
  </defs>
  
  <!-- Left rounded rectangle (Purple to Blue) -->
  <path d="M 12 8 Q 8 8 8 12 L 8 40 Q 8 48 16 52 Q 24 56 28 52 L 28 12 Q 28 8 24 8 Q 20 8 16 8 Z" fill="url(#grad1)"/>
  
  <!-- Right rounded rectangle (Blue to Pink) -->
  <path d="M 36 8 Q 32 8 32 12 L 32 28 Q 32 40 40 48 Q 48 56 56 52 Q 60 50 60 44 L 60 12 Q 60 8 56 8 Q 52 8 48 8 Z" fill="url(#grad2)"/>
  
  <!-- Center white circle -->
  <circle cx="32" cy="24" r="12" fill="white" opacity="0.95"/>
</svg>
